<mxfile host="app.diagrams.net" modified="2024-01-10T19:07:44.273Z" agent="Mozilla/5.0 (Windows NT 10.0; Win64; x64) AppleWebKit/537.36 (KHTML, like Gecko) Chrome/120.0.0.0 Safari/537.36" etag="w20eV65mJr_1f27eS7E6" version="22.1.18" type="device">
  <diagram name="credit-card-system" id="IuIEZ4vb6iFK3Cl2leCp">
    <mxGraphModel dx="2261" dy="1915" grid="1" gridSize="10" guides="1" tooltips="1" connect="1" arrows="1" fold="1" page="1" pageScale="1" pageWidth="827" pageHeight="1169" math="0" shadow="0">
      <root>
        <mxCell id="0" />
        <mxCell id="1" parent="0" />
        <mxCell id="NxEHXNQHtoxwlR-ic7OO-3" value="&amp;lt;&amp;lt;Interface&amp;gt;&amp;gt;&lt;br&gt;&lt;b&gt;CreditCardType&lt;/b&gt;" style="swimlane;fontStyle=0;childLayout=stackLayout;horizontal=1;startSize=30;fillColor=none;horizontalStack=0;resizeParent=1;resizeParentMax=0;resizeLast=0;collapsible=1;marginBottom=0;whiteSpace=wrap;html=1;" parent="1" vertex="1">
          <mxGeometry x="240" y="240" width="140" height="108" as="geometry" />
        </mxCell>
        <mxCell id="NxEHXNQHtoxwlR-ic7OO-4" value="+ getCardType(): String" style="text;strokeColor=none;fillColor=none;align=left;verticalAlign=top;spacingLeft=4;spacingRight=4;overflow=hidden;rotatable=0;points=[[0,0.5],[1,0.5]];portConstraint=eastwest;whiteSpace=wrap;html=1;" parent="NxEHXNQHtoxwlR-ic7OO-3" vertex="1">
          <mxGeometry y="30" width="140" height="26" as="geometry" />
        </mxCell>
        <mxCell id="NxEHXNQHtoxwlR-ic7OO-5" value="+ getCreditLimit&lt;span style=&quot;font-size: var(--cib-type-body1-font-size); font-weight: var(--cib-type-body1-font-weight); color: rgb(17, 17, 17); font-variation-settings: var(--cib-type-subtitle1-font-variation-settings);&quot; class=&quot;hljs-params&quot;&gt;()&lt;/span&gt;&lt;span style=&quot;background-color: initial;&quot;&gt;: int&lt;/span&gt;" style="text;strokeColor=none;fillColor=none;align=left;verticalAlign=top;spacingLeft=4;spacingRight=4;overflow=hidden;rotatable=0;points=[[0,0.5],[1,0.5]];portConstraint=eastwest;whiteSpace=wrap;html=1;" parent="NxEHXNQHtoxwlR-ic7OO-3" vertex="1">
          <mxGeometry y="56" width="140" height="26" as="geometry" />
        </mxCell>
        <mxCell id="NxEHXNQHtoxwlR-ic7OO-6" value="+getAnnualFee&lt;span style=&quot;font-size: var(--cib-type-body1-font-size); font-weight: var(--cib-type-body1-font-weight); color: rgb(17, 17, 17); font-variation-settings: var(--cib-type-subtitle1-font-variation-settings);&quot; class=&quot;hljs-params&quot;&gt;()&lt;/span&gt;&lt;span style=&quot;background-color: initial;&quot;&gt;: String&lt;/span&gt;" style="text;strokeColor=none;fillColor=none;align=left;verticalAlign=top;spacingLeft=4;spacingRight=4;overflow=hidden;rotatable=0;points=[[0,0.5],[1,0.5]];portConstraint=eastwest;whiteSpace=wrap;html=1;" parent="NxEHXNQHtoxwlR-ic7OO-3" vertex="1">
          <mxGeometry y="82" width="140" height="26" as="geometry" />
        </mxCell>
        <mxCell id="NxEHXNQHtoxwlR-ic7OO-12" value="Platinum" style="swimlane;fontStyle=1;align=center;verticalAlign=top;childLayout=stackLayout;horizontal=1;startSize=26;horizontalStack=0;resizeParent=1;resizeParentMax=0;resizeLast=0;collapsible=1;marginBottom=0;whiteSpace=wrap;html=1;" parent="1" vertex="1">
          <mxGeometry x="230" y="420" width="160" height="86" as="geometry" />
        </mxCell>
        <mxCell id="NxEHXNQHtoxwlR-ic7OO-13" value="+ field: type" style="text;strokeColor=none;fillColor=none;align=left;verticalAlign=top;spacingLeft=4;spacingRight=4;overflow=hidden;rotatable=0;points=[[0,0.5],[1,0.5]];portConstraint=eastwest;whiteSpace=wrap;html=1;" parent="NxEHXNQHtoxwlR-ic7OO-12" vertex="1">
          <mxGeometry y="26" width="160" height="26" as="geometry" />
        </mxCell>
        <mxCell id="NxEHXNQHtoxwlR-ic7OO-14" value="" style="line;strokeWidth=1;fillColor=none;align=left;verticalAlign=middle;spacingTop=-1;spacingLeft=3;spacingRight=3;rotatable=0;labelPosition=right;points=[];portConstraint=eastwest;strokeColor=inherit;" parent="NxEHXNQHtoxwlR-ic7OO-12" vertex="1">
          <mxGeometry y="52" width="160" height="8" as="geometry" />
        </mxCell>
        <mxCell id="NxEHXNQHtoxwlR-ic7OO-15" value="+ method(type): type" style="text;strokeColor=none;fillColor=none;align=left;verticalAlign=top;spacingLeft=4;spacingRight=4;overflow=hidden;rotatable=0;points=[[0,0.5],[1,0.5]];portConstraint=eastwest;whiteSpace=wrap;html=1;" parent="NxEHXNQHtoxwlR-ic7OO-12" vertex="1">
          <mxGeometry y="60" width="160" height="26" as="geometry" />
        </mxCell>
        <mxCell id="NxEHXNQHtoxwlR-ic7OO-16" value="Gold" style="swimlane;fontStyle=1;align=center;verticalAlign=top;childLayout=stackLayout;horizontal=1;startSize=26;horizontalStack=0;resizeParent=1;resizeParentMax=0;resizeLast=0;collapsible=1;marginBottom=0;whiteSpace=wrap;html=1;" parent="1" vertex="1">
          <mxGeometry x="480" y="420" width="160" height="86" as="geometry" />
        </mxCell>
        <mxCell id="NxEHXNQHtoxwlR-ic7OO-17" value="+ field: type" style="text;strokeColor=none;fillColor=none;align=left;verticalAlign=top;spacingLeft=4;spacingRight=4;overflow=hidden;rotatable=0;points=[[0,0.5],[1,0.5]];portConstraint=eastwest;whiteSpace=wrap;html=1;" parent="NxEHXNQHtoxwlR-ic7OO-16" vertex="1">
          <mxGeometry y="26" width="160" height="26" as="geometry" />
        </mxCell>
        <mxCell id="NxEHXNQHtoxwlR-ic7OO-18" value="" style="line;strokeWidth=1;fillColor=none;align=left;verticalAlign=middle;spacingTop=-1;spacingLeft=3;spacingRight=3;rotatable=0;labelPosition=right;points=[];portConstraint=eastwest;strokeColor=inherit;" parent="NxEHXNQHtoxwlR-ic7OO-16" vertex="1">
          <mxGeometry y="52" width="160" height="8" as="geometry" />
        </mxCell>
        <mxCell id="NxEHXNQHtoxwlR-ic7OO-19" value="+ method(type): type" style="text;strokeColor=none;fillColor=none;align=left;verticalAlign=top;spacingLeft=4;spacingRight=4;overflow=hidden;rotatable=0;points=[[0,0.5],[1,0.5]];portConstraint=eastwest;whiteSpace=wrap;html=1;" parent="NxEHXNQHtoxwlR-ic7OO-16" vertex="1">
          <mxGeometry y="60" width="160" height="26" as="geometry" />
        </mxCell>
        <mxCell id="NxEHXNQHtoxwlR-ic7OO-20" value="Standard" style="swimlane;fontStyle=1;align=center;verticalAlign=top;childLayout=stackLayout;horizontal=1;startSize=26;horizontalStack=0;resizeParent=1;resizeParentMax=0;resizeLast=0;collapsible=1;marginBottom=0;whiteSpace=wrap;html=1;" parent="1" vertex="1">
          <mxGeometry x="-10" y="420" width="160" height="86" as="geometry" />
        </mxCell>
        <mxCell id="NxEHXNQHtoxwlR-ic7OO-21" value="+ field: type" style="text;strokeColor=none;fillColor=none;align=left;verticalAlign=top;spacingLeft=4;spacingRight=4;overflow=hidden;rotatable=0;points=[[0,0.5],[1,0.5]];portConstraint=eastwest;whiteSpace=wrap;html=1;" parent="NxEHXNQHtoxwlR-ic7OO-20" vertex="1">
          <mxGeometry y="26" width="160" height="26" as="geometry" />
        </mxCell>
        <mxCell id="NxEHXNQHtoxwlR-ic7OO-22" value="" style="line;strokeWidth=1;fillColor=none;align=left;verticalAlign=middle;spacingTop=-1;spacingLeft=3;spacingRight=3;rotatable=0;labelPosition=right;points=[];portConstraint=eastwest;strokeColor=inherit;" parent="NxEHXNQHtoxwlR-ic7OO-20" vertex="1">
          <mxGeometry y="52" width="160" height="8" as="geometry" />
        </mxCell>
        <mxCell id="NxEHXNQHtoxwlR-ic7OO-23" value="+ method(type): type" style="text;strokeColor=none;fillColor=none;align=left;verticalAlign=top;spacingLeft=4;spacingRight=4;overflow=hidden;rotatable=0;points=[[0,0.5],[1,0.5]];portConstraint=eastwest;whiteSpace=wrap;html=1;" parent="NxEHXNQHtoxwlR-ic7OO-20" vertex="1">
          <mxGeometry y="60" width="160" height="26" as="geometry" />
        </mxCell>
        <mxCell id="NxEHXNQHtoxwlR-ic7OO-24" value="&amp;lt;&amp;lt;Interface&amp;gt;&amp;gt;&lt;br&gt;&lt;b&gt;CreditCardFactory&lt;/b&gt;" style="swimlane;fontStyle=0;childLayout=stackLayout;horizontal=1;startSize=30;fillColor=none;horizontalStack=0;resizeParent=1;resizeParentMax=0;resizeLast=0;collapsible=1;marginBottom=0;whiteSpace=wrap;html=1;" parent="1" vertex="1">
          <mxGeometry x="715" y="266" width="360" height="56" as="geometry" />
        </mxCell>
        <mxCell id="NxEHXNQHtoxwlR-ic7OO-25" value="+ getCreditCard(creditCardType): CreditCard" style="text;strokeColor=none;fillColor=none;align=left;verticalAlign=top;spacingLeft=4;spacingRight=4;overflow=hidden;rotatable=0;points=[[0,0.5],[1,0.5]];portConstraint=eastwest;whiteSpace=wrap;html=1;" parent="NxEHXNQHtoxwlR-ic7OO-24" vertex="1">
          <mxGeometry y="30" width="360" height="26" as="geometry" />
        </mxCell>
        <mxCell id="NxEHXNQHtoxwlR-ic7OO-28" value="" style="endArrow=block;dashed=1;endFill=0;endSize=12;html=1;rounded=0;entryX=0.457;entryY=1.077;entryDx=0;entryDy=0;entryPerimeter=0;exitX=0.471;exitY=0.375;exitDx=0;exitDy=0;exitPerimeter=0;" parent="1" source="NxEHXNQHtoxwlR-ic7OO-29" target="NxEHXNQHtoxwlR-ic7OO-6" edge="1">
          <mxGeometry width="160" relative="1" as="geometry">
            <mxPoint x="304" y="400" as="sourcePoint" />
            <mxPoint x="420" y="400" as="targetPoint" />
          </mxGeometry>
        </mxCell>
        <mxCell id="NxEHXNQHtoxwlR-ic7OO-29" value="" style="line;strokeWidth=1;fillColor=none;align=left;verticalAlign=middle;spacingTop=-1;spacingLeft=3;spacingRight=3;rotatable=0;labelPosition=right;points=[];portConstraint=eastwest;strokeColor=inherit;dashed=1;" parent="1" vertex="1">
          <mxGeometry x="80" y="390" width="480" height="8" as="geometry" />
        </mxCell>
        <mxCell id="NxEHXNQHtoxwlR-ic7OO-32" value="" style="endArrow=none;dashed=1;html=1;rounded=0;entryX=1;entryY=0;entryDx=0;entryDy=0;entryPerimeter=0;exitX=0.5;exitY=0;exitDx=0;exitDy=0;" parent="1" source="NxEHXNQHtoxwlR-ic7OO-16" target="NxEHXNQHtoxwlR-ic7OO-29" edge="1">
          <mxGeometry width="50" height="50" relative="1" as="geometry">
            <mxPoint x="620" y="410" as="sourcePoint" />
            <mxPoint x="670" y="360" as="targetPoint" />
          </mxGeometry>
        </mxCell>
        <mxCell id="NxEHXNQHtoxwlR-ic7OO-33" value="" style="endArrow=none;dashed=1;html=1;rounded=0;entryX=0.477;entryY=0.125;entryDx=0;entryDy=0;entryPerimeter=0;exitX=0.5;exitY=0;exitDx=0;exitDy=0;" parent="1" source="NxEHXNQHtoxwlR-ic7OO-12" target="NxEHXNQHtoxwlR-ic7OO-29" edge="1">
          <mxGeometry width="50" height="50" relative="1" as="geometry">
            <mxPoint x="326" y="430" as="sourcePoint" />
            <mxPoint x="380" y="560" as="targetPoint" />
            <Array as="points" />
          </mxGeometry>
        </mxCell>
        <mxCell id="NxEHXNQHtoxwlR-ic7OO-34" value="" style="endArrow=none;dashed=1;html=1;rounded=0;entryX=0.002;entryY=0.5;entryDx=0;entryDy=0;entryPerimeter=0;exitX=0.569;exitY=-0.047;exitDx=0;exitDy=0;exitPerimeter=0;" parent="1" source="NxEHXNQHtoxwlR-ic7OO-20" target="NxEHXNQHtoxwlR-ic7OO-29" edge="1">
          <mxGeometry width="50" height="50" relative="1" as="geometry">
            <mxPoint x="-10" y="630" as="sourcePoint" />
            <mxPoint x="40" y="580" as="targetPoint" />
          </mxGeometry>
        </mxCell>
        <mxCell id="NxEHXNQHtoxwlR-ic7OO-35" value="&amp;lt;&amp;lt;Interface&amp;gt;&amp;gt;&lt;br&gt;&lt;b&gt;PaymentNetwork&lt;/b&gt;" style="swimlane;fontStyle=0;childLayout=stackLayout;horizontal=1;startSize=30;fillColor=none;horizontalStack=0;resizeParent=1;resizeParentMax=0;resizeLast=0;collapsible=1;marginBottom=0;whiteSpace=wrap;html=1;" parent="1" vertex="1">
          <mxGeometry x="220" y="-60" width="200" height="56" as="geometry" />
        </mxCell>
        <mxCell id="NxEHXNQHtoxwlR-ic7OO-36" value="+ getNetworkName(): String" style="text;strokeColor=none;fillColor=none;align=left;verticalAlign=top;spacingLeft=4;spacingRight=4;overflow=hidden;rotatable=0;points=[[0,0.5],[1,0.5]];portConstraint=eastwest;whiteSpace=wrap;html=1;" parent="NxEHXNQHtoxwlR-ic7OO-35" vertex="1">
          <mxGeometry y="30" width="200" height="26" as="geometry" />
        </mxCell>
        <mxCell id="NxEHXNQHtoxwlR-ic7OO-39" value="Visa" style="swimlane;fontStyle=1;align=center;verticalAlign=top;childLayout=stackLayout;horizontal=1;startSize=26;horizontalStack=0;resizeParent=1;resizeParentMax=0;resizeLast=0;collapsible=1;marginBottom=0;whiteSpace=wrap;html=1;" parent="1" vertex="1">
          <mxGeometry x="90" y="80" width="160" height="86" as="geometry" />
        </mxCell>
        <mxCell id="NxEHXNQHtoxwlR-ic7OO-40" value="+ field: type" style="text;strokeColor=none;fillColor=none;align=left;verticalAlign=top;spacingLeft=4;spacingRight=4;overflow=hidden;rotatable=0;points=[[0,0.5],[1,0.5]];portConstraint=eastwest;whiteSpace=wrap;html=1;" parent="NxEHXNQHtoxwlR-ic7OO-39" vertex="1">
          <mxGeometry y="26" width="160" height="26" as="geometry" />
        </mxCell>
        <mxCell id="NxEHXNQHtoxwlR-ic7OO-41" value="" style="line;strokeWidth=1;fillColor=none;align=left;verticalAlign=middle;spacingTop=-1;spacingLeft=3;spacingRight=3;rotatable=0;labelPosition=right;points=[];portConstraint=eastwest;strokeColor=inherit;" parent="NxEHXNQHtoxwlR-ic7OO-39" vertex="1">
          <mxGeometry y="52" width="160" height="8" as="geometry" />
        </mxCell>
        <mxCell id="NxEHXNQHtoxwlR-ic7OO-42" value="+ method(type): type" style="text;strokeColor=none;fillColor=none;align=left;verticalAlign=top;spacingLeft=4;spacingRight=4;overflow=hidden;rotatable=0;points=[[0,0.5],[1,0.5]];portConstraint=eastwest;whiteSpace=wrap;html=1;" parent="NxEHXNQHtoxwlR-ic7OO-39" vertex="1">
          <mxGeometry y="60" width="160" height="26" as="geometry" />
        </mxCell>
        <mxCell id="NxEHXNQHtoxwlR-ic7OO-43" value="Mastercard" style="swimlane;fontStyle=1;align=center;verticalAlign=top;childLayout=stackLayout;horizontal=1;startSize=26;horizontalStack=0;resizeParent=1;resizeParentMax=0;resizeLast=0;collapsible=1;marginBottom=0;whiteSpace=wrap;html=1;" parent="1" vertex="1">
          <mxGeometry x="400" y="80" width="160" height="86" as="geometry" />
        </mxCell>
        <mxCell id="NxEHXNQHtoxwlR-ic7OO-44" value="+ field: type" style="text;strokeColor=none;fillColor=none;align=left;verticalAlign=top;spacingLeft=4;spacingRight=4;overflow=hidden;rotatable=0;points=[[0,0.5],[1,0.5]];portConstraint=eastwest;whiteSpace=wrap;html=1;" parent="NxEHXNQHtoxwlR-ic7OO-43" vertex="1">
          <mxGeometry y="26" width="160" height="26" as="geometry" />
        </mxCell>
        <mxCell id="NxEHXNQHtoxwlR-ic7OO-45" value="" style="line;strokeWidth=1;fillColor=none;align=left;verticalAlign=middle;spacingTop=-1;spacingLeft=3;spacingRight=3;rotatable=0;labelPosition=right;points=[];portConstraint=eastwest;strokeColor=inherit;" parent="NxEHXNQHtoxwlR-ic7OO-43" vertex="1">
          <mxGeometry y="52" width="160" height="8" as="geometry" />
        </mxCell>
        <mxCell id="NxEHXNQHtoxwlR-ic7OO-46" value="+ method(type): type" style="text;strokeColor=none;fillColor=none;align=left;verticalAlign=top;spacingLeft=4;spacingRight=4;overflow=hidden;rotatable=0;points=[[0,0.5],[1,0.5]];portConstraint=eastwest;whiteSpace=wrap;html=1;" parent="NxEHXNQHtoxwlR-ic7OO-43" vertex="1">
          <mxGeometry y="60" width="160" height="26" as="geometry" />
        </mxCell>
        <mxCell id="NxEHXNQHtoxwlR-ic7OO-47" value="" style="endArrow=block;dashed=1;endFill=0;endSize=12;html=1;rounded=0;entryX=0.505;entryY=1.077;entryDx=0;entryDy=0;entryPerimeter=0;exitX=0.475;exitY=0.75;exitDx=0;exitDy=0;exitPerimeter=0;" parent="1" source="NxEHXNQHtoxwlR-ic7OO-48" target="NxEHXNQHtoxwlR-ic7OO-36" edge="1">
          <mxGeometry width="160" relative="1" as="geometry">
            <mxPoint x="321" y="40" as="sourcePoint" />
            <mxPoint x="324" y="440" as="targetPoint" />
          </mxGeometry>
        </mxCell>
        <mxCell id="NxEHXNQHtoxwlR-ic7OO-48" value="" style="line;strokeWidth=1;fillColor=none;align=left;verticalAlign=middle;spacingTop=-1;spacingLeft=3;spacingRight=3;rotatable=0;labelPosition=right;points=[];portConstraint=eastwest;strokeColor=inherit;dashed=1;" parent="1" vertex="1">
          <mxGeometry x="170" y="40" width="320" height="8" as="geometry" />
        </mxCell>
        <mxCell id="NxEHXNQHtoxwlR-ic7OO-49" value="" style="endArrow=none;dashed=1;html=1;rounded=0;entryX=1;entryY=1;entryDx=0;entryDy=0;entryPerimeter=0;" parent="1" target="NxEHXNQHtoxwlR-ic7OO-48" edge="1">
          <mxGeometry width="50" height="50" relative="1" as="geometry">
            <mxPoint x="490" y="80" as="sourcePoint" />
            <mxPoint x="490" y="210" as="targetPoint" />
          </mxGeometry>
        </mxCell>
        <mxCell id="NxEHXNQHtoxwlR-ic7OO-50" value="" style="endArrow=none;dashed=1;html=1;rounded=0;" parent="1" edge="1">
          <mxGeometry width="50" height="50" relative="1" as="geometry">
            <mxPoint x="170" y="80" as="sourcePoint" />
            <mxPoint x="170" y="44" as="targetPoint" />
          </mxGeometry>
        </mxCell>
        <mxCell id="NxEHXNQHtoxwlR-ic7OO-59" value="&amp;lt;&amp;lt;Interface&amp;gt;&amp;gt;&lt;br&gt;&lt;b style=&quot;border-color: var(--border-color);&quot;&gt;PaymentNetwork&lt;/b&gt;&lt;b&gt;Factory&lt;/b&gt;" style="swimlane;fontStyle=0;childLayout=stackLayout;horizontal=1;startSize=30;fillColor=none;horizontalStack=0;resizeParent=1;resizeParentMax=0;resizeLast=0;collapsible=1;marginBottom=0;whiteSpace=wrap;html=1;" parent="1" vertex="1">
          <mxGeometry x="700" y="-56" width="390" height="56" as="geometry" />
        </mxCell>
        <mxCell id="NxEHXNQHtoxwlR-ic7OO-60" value="+ getPaymentNetworkType(paymentNetworkType): PaymentNetwork" style="text;strokeColor=none;fillColor=none;align=left;verticalAlign=top;spacingLeft=4;spacingRight=4;overflow=hidden;rotatable=0;points=[[0,0.5],[1,0.5]];portConstraint=eastwest;whiteSpace=wrap;html=1;" parent="NxEHXNQHtoxwlR-ic7OO-59" vertex="1">
          <mxGeometry y="30" width="390" height="26" as="geometry" />
        </mxCell>
        <mxCell id="hv-cHD6cl9PjjwCEV6GQ-5" value="CreditCardBuilder" style="swimlane;fontStyle=1;align=center;verticalAlign=top;childLayout=stackLayout;horizontal=1;startSize=26;horizontalStack=0;resizeParent=1;resizeParentMax=0;resizeLast=0;collapsible=1;marginBottom=0;whiteSpace=wrap;html=1;" vertex="1" parent="1">
          <mxGeometry x="1250" y="80" width="440" height="112" as="geometry" />
        </mxCell>
        <mxCell id="hv-cHD6cl9PjjwCEV6GQ-6" value="+ creditcardFactory: CreditcardFactory" style="text;strokeColor=none;fillColor=none;align=left;verticalAlign=top;spacingLeft=4;spacingRight=4;overflow=hidden;rotatable=0;points=[[0,0.5],[1,0.5]];portConstraint=eastwest;whiteSpace=wrap;html=1;" vertex="1" parent="hv-cHD6cl9PjjwCEV6GQ-5">
          <mxGeometry y="26" width="440" height="26" as="geometry" />
        </mxCell>
        <mxCell id="hv-cHD6cl9PjjwCEV6GQ-9" value="+ paymentNetworkFactory: PaymentNetworkFactory" style="text;strokeColor=none;fillColor=none;align=left;verticalAlign=top;spacingLeft=4;spacingRight=4;overflow=hidden;rotatable=0;points=[[0,0.5],[1,0.5]];portConstraint=eastwest;whiteSpace=wrap;html=1;" vertex="1" parent="hv-cHD6cl9PjjwCEV6GQ-5">
          <mxGeometry y="52" width="440" height="26" as="geometry" />
        </mxCell>
        <mxCell id="hv-cHD6cl9PjjwCEV6GQ-7" value="" style="line;strokeWidth=1;fillColor=none;align=left;verticalAlign=middle;spacingTop=-1;spacingLeft=3;spacingRight=3;rotatable=0;labelPosition=right;points=[];portConstraint=eastwest;strokeColor=inherit;" vertex="1" parent="hv-cHD6cl9PjjwCEV6GQ-5">
          <mxGeometry y="78" width="440" height="8" as="geometry" />
        </mxCell>
        <mxCell id="hv-cHD6cl9PjjwCEV6GQ-8" value="+ createCreditCard(creditCardType, paymentNetworkType): CreditCard" style="text;strokeColor=none;fillColor=none;align=left;verticalAlign=top;spacingLeft=4;spacingRight=4;overflow=hidden;rotatable=0;points=[[0,0.5],[1,0.5]];portConstraint=eastwest;whiteSpace=wrap;html=1;" vertex="1" parent="hv-cHD6cl9PjjwCEV6GQ-5">
          <mxGeometry y="86" width="440" height="26" as="geometry" />
        </mxCell>
        <mxCell id="hv-cHD6cl9PjjwCEV6GQ-10" value="CreditCard" style="swimlane;fontStyle=1;align=center;verticalAlign=top;childLayout=stackLayout;horizontal=1;startSize=26;horizontalStack=0;resizeParent=1;resizeParentMax=0;resizeLast=0;collapsible=1;marginBottom=0;whiteSpace=wrap;html=1;" vertex="1" parent="1">
          <mxGeometry x="1355" y="-140" width="230" height="112" as="geometry" />
        </mxCell>
        <mxCell id="hv-cHD6cl9PjjwCEV6GQ-11" value="+ creditCardType: CreditCardType" style="text;strokeColor=none;fillColor=none;align=left;verticalAlign=top;spacingLeft=4;spacingRight=4;overflow=hidden;rotatable=0;points=[[0,0.5],[1,0.5]];portConstraint=eastwest;whiteSpace=wrap;html=1;" vertex="1" parent="hv-cHD6cl9PjjwCEV6GQ-10">
          <mxGeometry y="26" width="230" height="26" as="geometry" />
        </mxCell>
        <mxCell id="hv-cHD6cl9PjjwCEV6GQ-14" value="+ paymentNetwork: PaymentNetwork" style="text;strokeColor=none;fillColor=none;align=left;verticalAlign=top;spacingLeft=4;spacingRight=4;overflow=hidden;rotatable=0;points=[[0,0.5],[1,0.5]];portConstraint=eastwest;whiteSpace=wrap;html=1;" vertex="1" parent="hv-cHD6cl9PjjwCEV6GQ-10">
          <mxGeometry y="52" width="230" height="26" as="geometry" />
        </mxCell>
        <mxCell id="hv-cHD6cl9PjjwCEV6GQ-12" value="" style="line;strokeWidth=1;fillColor=none;align=left;verticalAlign=middle;spacingTop=-1;spacingLeft=3;spacingRight=3;rotatable=0;labelPosition=right;points=[];portConstraint=eastwest;strokeColor=inherit;" vertex="1" parent="hv-cHD6cl9PjjwCEV6GQ-10">
          <mxGeometry y="78" width="230" height="8" as="geometry" />
        </mxCell>
        <mxCell id="hv-cHD6cl9PjjwCEV6GQ-13" value="+ method(type): type" style="text;strokeColor=none;fillColor=none;align=left;verticalAlign=top;spacingLeft=4;spacingRight=4;overflow=hidden;rotatable=0;points=[[0,0.5],[1,0.5]];portConstraint=eastwest;whiteSpace=wrap;html=1;" vertex="1" parent="hv-cHD6cl9PjjwCEV6GQ-10">
          <mxGeometry y="86" width="230" height="26" as="geometry" />
        </mxCell>
        <mxCell id="hv-cHD6cl9PjjwCEV6GQ-15" value="Use" style="endArrow=open;endSize=12;dashed=1;html=1;rounded=0;exitX=-0.008;exitY=0.375;exitDx=0;exitDy=0;exitPerimeter=0;" edge="1" parent="1" source="NxEHXNQHtoxwlR-ic7OO-59" target="NxEHXNQHtoxwlR-ic7OO-35">
          <mxGeometry width="160" relative="1" as="geometry">
            <mxPoint x="600" y="90" as="sourcePoint" />
            <mxPoint x="760" y="90" as="targetPoint" />
          </mxGeometry>
        </mxCell>
        <mxCell id="hv-cHD6cl9PjjwCEV6GQ-16" value="Use" style="endArrow=open;endSize=12;dashed=1;html=1;rounded=0;exitX=0;exitY=0.25;exitDx=0;exitDy=0;entryX=1;entryY=0.5;entryDx=0;entryDy=0;" edge="1" parent="1" source="NxEHXNQHtoxwlR-ic7OO-24" target="NxEHXNQHtoxwlR-ic7OO-4">
          <mxGeometry width="160" relative="1" as="geometry">
            <mxPoint x="657" y="370" as="sourcePoint" />
            <mxPoint x="380" y="372" as="targetPoint" />
          </mxGeometry>
        </mxCell>
        <mxCell id="hv-cHD6cl9PjjwCEV6GQ-17" value="Use" style="endArrow=open;endSize=12;dashed=1;html=1;rounded=0;exitX=0;exitY=0.188;exitDx=0;exitDy=0;exitPerimeter=0;entryX=1;entryY=0.25;entryDx=0;entryDy=0;" edge="1" parent="1" source="hv-cHD6cl9PjjwCEV6GQ-5" target="NxEHXNQHtoxwlR-ic7OO-59">
          <mxGeometry width="160" relative="1" as="geometry">
            <mxPoint x="1057" y="135" as="sourcePoint" />
            <mxPoint x="780" y="137" as="targetPoint" />
          </mxGeometry>
        </mxCell>
        <mxCell id="hv-cHD6cl9PjjwCEV6GQ-18" value="Use" style="endArrow=open;endSize=12;dashed=1;html=1;rounded=0;exitX=-0.002;exitY=0.769;exitDx=0;exitDy=0;exitPerimeter=0;entryX=1.011;entryY=0.375;entryDx=0;entryDy=0;entryPerimeter=0;" edge="1" parent="1" source="hv-cHD6cl9PjjwCEV6GQ-9" target="NxEHXNQHtoxwlR-ic7OO-24">
          <mxGeometry width="160" relative="1" as="geometry">
            <mxPoint x="1217" y="500" as="sourcePoint" />
            <mxPoint x="940" y="502" as="targetPoint" />
          </mxGeometry>
        </mxCell>
        <mxCell id="hv-cHD6cl9PjjwCEV6GQ-19" value="Use" style="endArrow=open;endSize=12;dashed=1;html=1;rounded=0;exitX=0.5;exitY=0;exitDx=0;exitDy=0;entryX=0.496;entryY=1.115;entryDx=0;entryDy=0;entryPerimeter=0;" edge="1" parent="1" source="hv-cHD6cl9PjjwCEV6GQ-5" target="hv-cHD6cl9PjjwCEV6GQ-13">
          <mxGeometry width="160" relative="1" as="geometry">
            <mxPoint x="1257" y="-140" as="sourcePoint" />
            <mxPoint x="980" y="-138" as="targetPoint" />
          </mxGeometry>
        </mxCell>
        <mxCell id="hv-cHD6cl9PjjwCEV6GQ-20" value="InstancesUtils" style="swimlane;fontStyle=1;align=center;verticalAlign=top;childLayout=stackLayout;horizontal=1;startSize=26;horizontalStack=0;resizeParent=1;resizeParentMax=0;resizeLast=0;collapsible=1;marginBottom=0;whiteSpace=wrap;html=1;" vertex="1" parent="1">
          <mxGeometry x="705" y="90" width="385" height="86" as="geometry" />
        </mxCell>
        <mxCell id="hv-cHD6cl9PjjwCEV6GQ-22" value="" style="line;strokeWidth=1;fillColor=none;align=left;verticalAlign=middle;spacingTop=-1;spacingLeft=3;spacingRight=3;rotatable=0;labelPosition=right;points=[];portConstraint=eastwest;strokeColor=inherit;" vertex="1" parent="hv-cHD6cl9PjjwCEV6GQ-20">
          <mxGeometry y="26" width="385" height="8" as="geometry" />
        </mxCell>
        <mxCell id="hv-cHD6cl9PjjwCEV6GQ-23" value="+ getCreditCardType(creditCardType): CreditCardType" style="text;strokeColor=none;fillColor=none;align=left;verticalAlign=top;spacingLeft=4;spacingRight=4;overflow=hidden;rotatable=0;points=[[0,0.5],[1,0.5]];portConstraint=eastwest;whiteSpace=wrap;html=1;" vertex="1" parent="hv-cHD6cl9PjjwCEV6GQ-20">
          <mxGeometry y="34" width="385" height="26" as="geometry" />
        </mxCell>
        <mxCell id="hv-cHD6cl9PjjwCEV6GQ-24" value="+ getPaymentNetworkType(creditCardType): PaymentNetwork" style="text;strokeColor=none;fillColor=none;align=left;verticalAlign=top;spacingLeft=4;spacingRight=4;overflow=hidden;rotatable=0;points=[[0,0.5],[1,0.5]];portConstraint=eastwest;whiteSpace=wrap;html=1;" vertex="1" parent="hv-cHD6cl9PjjwCEV6GQ-20">
          <mxGeometry y="60" width="385" height="26" as="geometry" />
        </mxCell>
        <mxCell id="hv-cHD6cl9PjjwCEV6GQ-25" value="Use" style="endArrow=open;endSize=12;dashed=1;html=1;rounded=0;exitX=0.482;exitY=1.038;exitDx=0;exitDy=0;exitPerimeter=0;entryX=0.478;entryY=0.012;entryDx=0;entryDy=0;entryPerimeter=0;" edge="1" parent="1" source="NxEHXNQHtoxwlR-ic7OO-60" target="hv-cHD6cl9PjjwCEV6GQ-20">
          <mxGeometry width="160" relative="1" as="geometry">
            <mxPoint x="640" y="210" as="sourcePoint" />
            <mxPoint x="363" y="212" as="targetPoint" />
          </mxGeometry>
        </mxCell>
        <mxCell id="hv-cHD6cl9PjjwCEV6GQ-26" value="Use" style="endArrow=open;endSize=12;dashed=1;html=1;rounded=0;exitX=0.525;exitY=-0.036;exitDx=0;exitDy=0;exitPerimeter=0;entryX=0.509;entryY=1.154;entryDx=0;entryDy=0;entryPerimeter=0;" edge="1" parent="1" source="NxEHXNQHtoxwlR-ic7OO-24" target="hv-cHD6cl9PjjwCEV6GQ-24">
          <mxGeometry width="160" relative="1" as="geometry">
            <mxPoint x="1067" y="462" as="sourcePoint" />
            <mxPoint x="790" y="464" as="targetPoint" />
          </mxGeometry>
        </mxCell>
      </root>
    </mxGraphModel>
  </diagram>
</mxfile>
